<?xml version="1.0" encoding="utf-8"?>
<svg xmlns="http://www.w3.org/2000/svg" viewBox="0 0 1024 1024">
  <g transform="translate(512, 512) scale(1.6) translate(0, 31.09) translate(-250, -250)">
    <g transform="matrix(1.100312, 0, 0, 1.100312, -24.666849, -40.548584)">
      <g transform="matrix(1, 0, 0, 1, -4.378084, -2.134998)">
        <path d="M 129.655 48.699 C 145.859 48.18 164.392 48.628 180.825 48.628 L 279.734 48.632 L 342.37 48.626 L 364.606 48.614 C 372.065 48.614 383.597 48.149 390.447 50.323 C 401.14 53.893 410.069 61.161 415.34 71.087 C 420.893 81.566 420.131 91.496 420.12 102.886 L 420.099 126.377 L 420.099 200.316 L 420.109 314.121 L 420.12 351.26 C 420.12 360.424 420.48 370.726 419.761 379.718 C 418.541 395.018 404.897 409.447 390.359 413.258 C 385.666 414.489 380.461 414.434 376.17 416.547 C 371.216 418.997 366.337 421.61 361.437 424.159 L 334.115 438.337 L 277.262 467.814 C 267.058 473.118 256.299 478.922 245.998 483.942 C 245.748 461.836 246.227 439.556 245.922 417.451 L 160.93 417.418 L 139.129 417.44 C 123.982 417.451 114.203 417.821 102.137 406.735 C 93.535 398.971 88.428 388.071 87.949 376.492 C 87.655 369.491 87.883 361.226 87.883 354.13 L 87.883 96.622 C 87.894 93.431 87.84 90.146 87.992 86.993 C 88.7 71.247 99.644 57.713 113.898 51.672 C 119.43 49.33 123.818 48.945 129.655 48.699 Z M 129.1 192.634 L 129.111 373.909 L 378.86 373.89 L 378.86 122.682 C 378.86 111.932 379.013 100.821 378.838 90.093 L 214.56 90.093 L 129.187 90.054 C 128.675 123.846 129.1 158.72 129.1 192.634 Z"/>
        <path d="M 277.697 119.868 C 285.483 119.387 293.638 119.868 301.457 119.704 C 305.671 119.617 310.147 119.689 314.362 119.87 C 313.066 128.081 311.214 136.681 309.581 144.87 L 302.6 180.291 C 299.9 192.557 297.494 205.869 295.043 218.267 L 281.356 287.362 L 275.845 315.313 C 274.855 320.311 273.657 327.2 272.317 332.002 C 260.142 332.361 245.388 332.182 233.126 331.978 C 229.707 317.133 226.735 300.612 223.717 285.57 L 206.219 198.503 L 196.037 147.805 C 194.447 139.915 191.506 127.31 190.734 119.832 C 201.852 119.47 216.41 119.476 227.519 119.818 C 228.858 124.757 230.176 133.622 231.123 138.978 L 237.428 174.177 L 247.348 229.563 C 249.166 239.685 251.367 250.639 252.846 260.749 C 253.599 257.772 254.318 252.888 254.861 249.718 L 258.28 230.173 L 271.119 156.825 L 275.137 133.744 C 275.89 129.423 276.662 124.054 277.697 119.868 Z"/>
      </g>
    </g>
  </g>
</svg>
