<svg width="512" height="512" viewBox="0 0 512 512" fill="none" xmlns="http://www.w3.org/2000/svg">
<path d="M271.195 0C403.05 6.18989e-05 509.939 107.321 509.939 239.709V272.291C509.939 363.486 512.139 442.234 511.993 482.791C511.922 502.39 500.069 512 480.548 512H238.744C106.889 512 5.24291e-05 404.678 0 272.291V239.709C5.32727e-05 107.321 106.889 0.000211905 238.744 0H271.195ZM101.73 118.69V145.24L127.243 150.808L234.397 439.854H284.999L382.798 150.808L410.012 145.24V118.69H307.109V145.24L340.702 150.808L281.172 342.221L270.541 385.899L258.21 342.649L194.853 150.808L230.996 145.24V118.69H101.73Z" fill="#495F4A"/>
</svg>
